# xmcd
#
# Track frame offsets:
#	150
#	13656
#	25648
#	42128
#	54863
#	72108
#	86824
#	110443
#	126746
#	141552
#	153982
#	166528
#
# Disc length: 2279 seconds
#
# Revision: 0
# Processed by: cddbd v1.5.2PL0 Copyright (c) Steve Scherf et al.
# Submitted via: dBpowerAMP V4.0
#
DISCID=9808e50c
DTITLE=Danny O'Keefe - O'Keefe
DYEAR=1972
DGENRE=Pop/Rock
TTITLE0=Good Time Charlie's Got The Blues
TTITLE1=Shooting Star
TTITLE2=The Question (Obviously)
TTITLE3=Honky Tonkin'
TTITLE4=The Road 
TTITLE5=Grease It
TTITLE6=An American Dream
TTITLE7=Louie The Hook Vs. The Preacher
TTITLE8=The Valentine Pieces
TTITLE9=I'm Sober Now
TTITLE10=Roseland Taxi Dancer
TTITLE11=I Know You Really Love Me
EXTD=
EXTT0=
EXTT1=
EXTT2=
EXTT3=
EXTT4=
EXTT5=
EXTT6=
EXTT7=
EXTT8=
EXTT9=
EXTT10=
EXTT11=
PLAYORDER=
